<?xml version="1.0" encoding="UTF-8" standalone="no"?>
<!DOCTYPE svg PUBLIC "-//W3C//DTD SVG 1.1//EN" "http://www.w3.org/Graphics/SVG/1.1/DTD/svg11.dtd">
<svg width="100%" height="100%" viewBox="0 0 512 384" version="1.1" xmlns="http://www.w3.org/2000/svg" xmlns:xlink="http://www.w3.org/1999/xlink" xml:space="preserve" xmlns:serif="http://www.serif.com/" style="fill-rule:evenodd;clip-rule:evenodd;stroke-linejoin:round;stroke-miterlimit:2;">
    <g transform="matrix(1,0,0,1,0,-64)">
        <path d="M256,352C239.47,352 222.94,346.578 208.84,335.59L0,173.2L0,400C0,426.5 21.49,448 48,448L464,448C490.51,448 512,426.51 512,400L512,173.2L303.2,335.7C289.1,346.6 272.5,352 256,352ZM16.29,145.3L228.49,310.4C244.68,323 267.36,323 283.55,310.4L495.75,145.3C505.1,137.3 512,125 512,112C512,85.49 490.5,64 464,64L48,64C21.49,64 0,85.49 0,112C0,125 6.01,137.3 16.29,145.3Z" style="fill:white;fill-rule:nonzero;"/>
    </g>
</svg>
